<?xml version="1.0" encoding="utf-8"?>
<!-- Generator: Adobe Illustrator 24.0.1, SVG Export Plug-In . SVG Version: 6.00 Build 0)  -->
<svg version="1.1" id="Layer_1" xmlns="http://www.w3.org/2000/svg" xmlns:xlink="http://www.w3.org/1999/xlink" x="0px" y="0px"
	 viewBox="0 0 504 338.7" style="enable-background:new 0 0 504 338.7;" xml:space="preserve">
<style type="text/css">
	.st0{fill:#FFFFFF;}
</style>
<g>
	<polygon class="st0" points="285.1,4.1 243.2,78.1 243.2,223 376.1,4.1 	"/>
	<polygon class="st0" points="92.6,4.1 225.5,223 225.5,78.1 183.6,4.1 	"/>
	<rect x="3.6" y="250.3" class="st0" width="18.2" height="82.9"/>
	<polygon class="st0" points="98.2,301.3 59.4,250.3 42.6,250.3 42.6,333.2 60.6,333.2 60.6,280.5 100.7,333.2 116.2,333.2 
		116.2,250.3 98.2,250.3 	"/>
	<polygon class="st0" points="170.8,308.7 149.1,250.3 129,250.3 162.5,333.8 178.6,333.8 212.1,250.3 192.5,250.3 	"/>
	<rect x="225.7" y="250.3" class="st0" width="18.2" height="82.9"/>
	<path class="st0" d="M304.1,317.8c-14.2,0-24-11.8-24-26v-0.2c0-14.2,10.1-25.8,24-25.8c8.3,0,14.8,3.6,21.2,9.4l11.6-13.4
		c-7.7-7.6-17.1-12.8-32.7-12.8c-25.5,0-43.2,19.3-43.2,42.9v0.2c0,23.8,18.1,42.6,42.5,42.6c16,0,25.5-5.7,34-14.8l-11.6-11.7
		C319.4,314,313.6,317.8,304.1,317.8z"/>
	<polygon class="st0" points="414.9,250.3 346.2,250.3 346.2,267.1 371.4,267.1 371.4,333.2 389.6,333.2 389.6,267.1 414.9,267.1 	
		"/>
	<path class="st0" d="M446.6,249.7l-35.5,83.5h18.6l7.6-18.6h35l7.6,18.6h19.1l-35.5-83.5H446.6z M443.7,298.5l11-26.9l11,26.9
		H443.7z"/>
	<path class="st0" d="M499.1,254c-0.9-1.6-2.1-2.8-3.7-3.7c-1.6-0.9-3.3-1.3-5.3-1.3c-1.9,0-3.7,0.5-5.3,1.4
		c-1.6,0.9-2.8,2.2-3.7,3.8c-0.9,1.6-1.4,3.3-1.4,5.2s0.5,3.6,1.4,5.2c0.9,1.6,2.2,2.8,3.7,3.8c1.6,0.9,3.3,1.4,5.2,1.4
		c1.9,0,3.7-0.5,5.3-1.4c1.6-0.9,2.8-2.2,3.8-3.8c0.9-1.6,1.4-3.4,1.4-5.3C500.4,257.4,500,255.6,499.1,254z M497.5,262.3
		c-0.4,1-0.9,1.8-1.5,2.6l-2.4-3.6c1.3-0.7,1.9-1.8,1.9-3.4c0-1.3-0.5-2.2-1.4-3c-0.9-0.7-2.1-1.1-3.7-1.1h-5.1v11.2h3.6v-3.1h1.4
		l2,3.1h3.6c-0.7,0.8-1.6,1.4-2.6,1.9c-1,0.4-2.1,0.7-3.3,0.7c-1.5,0-2.9-0.4-4.1-1.1c-1.2-0.7-2.2-1.7-2.8-2.9
		c-0.7-1.2-1-2.6-1-4.1c0-1.5,0.3-2.9,1-4.1c0.7-1.2,1.6-2.2,2.9-2.9c1.2-0.7,2.6-1.1,4.1-1.1c1.5,0,2.9,0.4,4.1,1.1
		c1.2,0.7,2.2,1.7,2.8,2.9c0.7,1.2,1,2.6,1,4.1C498,260.4,497.9,261.4,497.5,262.3z M492,257.8c0,0.5-0.2,0.8-0.5,1.1
		c-0.3,0.3-0.7,0.4-1.2,0.4H489v-3h1.3c0.5,0,1,0.1,1.3,0.4C491.8,257,492,257.3,492,257.8z"/>
</g>
</svg>
