<?xml version="1.0" encoding="utf-8"?>
<!-- Generator: Adobe Illustrator 28.7.1, SVG Export Plug-In . SVG Version: 9.03 Build 54978)  -->
<svg version="1.1" baseProfile="tiny" id="Layer_1" xmlns="http://www.w3.org/2000/svg" xmlns:xlink="http://www.w3.org/1999/xlink"
	 x="0px" y="0px" viewBox="0 0 184.7 69.6" overflow="visible" xml:space="preserve">
<g>
	<path fill="#404040" d="M105,25.9H80.9v27.2h-6V22.9c0-0.4,0.1-0.8,0.2-1.2c0.2-0.4,0.4-0.7,0.6-1c0.3-0.3,0.6-0.5,1-0.6
		c0.4-0.2,0.8-0.2,1.2-0.2H105V25.9z M102.3,39.5H83.3v-6.1h19.1V39.5z"/>
	<polygon fill="#404040" points="139.9,25.9 126.6,25.9 126.6,53.1 120.6,53.1 120.6,25.9 107.3,25.9 107.3,19.9 139.9,19.9 	"/>
	<path fill="#404040" d="M174.1,53.1h-21.7c-0.6,0-1.2-0.1-1.8-0.2c-0.6-0.1-1.3-0.3-1.9-0.6c-0.6-0.3-1.2-0.6-1.8-1.1
		c-0.6-0.4-1.1-1-1.5-1.6c-0.4-0.6-0.8-1.4-1.1-2.2c-0.3-0.8-0.4-1.8-0.4-2.8V28.3c0-0.6,0.1-1.2,0.2-1.8c0.1-0.6,0.3-1.3,0.6-1.9
		c0.3-0.6,0.6-1.2,1.1-1.8c0.4-0.6,1-1.1,1.6-1.5c0.6-0.4,1.3-0.8,2.2-1.1c0.8-0.3,1.7-0.4,2.8-0.4h21.7v6h-21.7
		c-0.8,0-1.4,0.2-1.8,0.6c-0.4,0.4-0.6,1-0.6,1.9v16.3c0,0.8,0.2,1.4,0.6,1.8c0.4,0.4,1,0.6,1.8,0.6h21.7V53.1z"/>
	<path fill="#009ADE" d="M23.3,12.8L6,22.8v26.4l4.2,2.4c6.6-8.9,13.7-22.2,15.5-40.2l0.6-5C26.3,6.4,25.5,9.7,23.3,12.8"/>
	<path fill="#425CC7" d="M28.9,0.2c-0.1,5.9-0.9,28.3-9.5,56.7l9.5,5.5h0l9.5-5.5C29.8,28.6,29,6.1,28.9,0.2L28.9,0.2z"/>
	<path fill="#93D500" d="M34.5,12.8l17.3,10v26.4l-4.2,2.4C41,42.7,33.9,29.4,32.1,11.4l-0.6-5C31.5,6.4,32.3,9.7,34.5,12.8"/>
	<polygon fill="#404040" points="41.1,10.9 36.9,10.9 55.3,21.2 55.3,50.9 29.1,66.2 2.9,50.9 2.9,21.2 21.4,10.9 17.2,10.9 
		0.4,19.9 0.4,52.6 29.1,69.3 57.9,52.6 57.9,19.9 	"/>
</g>
<g>
	<path fill="#404040" d="M184.3,23c0,1.7-1.3,3-3,3c-1.7,0-3-1.3-3-3c0-1.6,1.3-2.9,3-2.9C183,20.1,184.3,21.4,184.3,23z M179,23
		c0,1.3,1,2.3,2.3,2.3c1.3,0,2.2-1,2.2-2.3c0-1.3-0.9-2.4-2.3-2.4C180,20.6,179,21.7,179,23z M180.8,24.5h-0.7v-2.9
		c0.3-0.1,0.6-0.1,1.1-0.1c0.6,0,0.8,0.1,1,0.2c0.2,0.1,0.3,0.4,0.3,0.6c0,0.3-0.3,0.6-0.6,0.7v0c0.3,0.1,0.4,0.3,0.5,0.7
		c0.1,0.4,0.1,0.6,0.2,0.7H182c-0.1-0.1-0.1-0.4-0.2-0.7c-0.1-0.3-0.2-0.5-0.6-0.5h-0.3V24.5z M180.8,22.9h0.3
		c0.4,0,0.7-0.1,0.7-0.4c0-0.3-0.2-0.4-0.6-0.4c-0.2,0-0.3,0-0.4,0V22.9z"/>
</g>
</svg>
